<svg width="1000" height="292" viewBox="0 0 1000 292" fill="none" xmlns="http://www.w3.org/2000/svg">
<g clip-path="url(#clip0_173_5)">
<rect width="1000" height="292" fill="white"/>
<rect width="277.605" height="292.236" fill="#FBACD9"/>
<rect y="134.057" width="277.605" height="158.179" fill="#FBACD9"/>
<rect width="31.6358" height="26.8905" fill="#FBACD9"/>
<rect x="31.6359" width="31.2404" height="26.8905" fill="#F8F8F8"/>
<rect x="62.8762" width="31.6358" height="26.8905" fill="#FBACD9"/>
<rect x="278" width="308" height="170" fill="#FBACD9"/>
<rect x="94.5121" width="31.2404" height="26.8905" fill="#F8F8F8"/>
<rect y="26.8905" width="31.6358" height="26.8905" fill="#F8F8F8"/>
<rect x="31.6359" y="26.8905" width="31.2404" height="26.8905" fill="#FBACD9"/>
<rect x="62.8762" y="26.8905" width="31.6358" height="26.8905" fill="#F8F8F8"/>
<rect x="94.5121" y="26.8905" width="31.2404" height="26.8905" fill="#FBACD9"/>
<rect y="53.7809" width="31.6358" height="26.495" fill="#FBACD9"/>
<rect x="31.6359" y="53.7809" width="31.2404" height="26.495" fill="#F8F8F8"/>
<rect x="62.8762" y="53.7809" width="31.6358" height="26.495" fill="#FBACD9"/>
<rect x="94.5121" y="53.7809" width="31.2404" height="26.495" fill="#F8F8F8"/>
<rect y="80.276" width="31.6358" height="26.8905" fill="#F8F8F8"/>
<rect x="31.6359" y="80.276" width="31.2404" height="26.8905" fill="#FBACD9"/>
<rect x="62.8762" y="80.276" width="31.6358" height="26.8905" fill="#F8F8F8"/>
<rect x="94.5121" y="80.276" width="31.2404" height="26.8905" fill="#FBACD9"/>
<rect x="271.673" y="134.057" width="6.32717" height="158.179" fill="#F8F8F8"/>
<rect x="265.346" y="134.057" width="6.32717" height="158.179" fill="#10967B"/>
<rect x="259.019" y="134.057" width="6.32717" height="158.179" fill="#F8F8F8"/>
<rect x="252.691" y="134.057" width="6.32717" height="158.179" fill="#10967B"/>
<rect x="246.364" y="134.057" width="6.32717" height="158.179" fill="#F8F8F8"/>
<rect x="240.037" y="134.057" width="6.32717" height="158.179" fill="#10967B"/>
<rect x="233.71" y="134.057" width="6.32717" height="158.179" fill="#F8F8F8"/>
<rect x="227.383" y="134.057" width="6.32717" height="158.179" fill="#10967B"/>
<rect x="221.055" y="134.057" width="6.32717" height="158.179" fill="#F8F8F8"/>
<rect x="214.728" y="134.057" width="6.32717" height="158.179" fill="#10967B"/>
<rect x="208.401" y="134.057" width="6.32717" height="158.179" fill="#F8F8F8"/>
<rect x="202.074" y="134.057" width="6.32717" height="158.179" fill="#10967B"/>
<rect y="107.166" width="31.6358" height="26.8905" fill="#FBACD9"/>
<rect y="134.057" width="49.0356" height="52.5946" fill="#10967B"/>
<rect y="186.651" width="49.0356" height="52.99" fill="#FBACD9"/>
<rect y="239.642" width="49.0356" height="52.5946" fill="#10967B"/>
<rect x="49.0355" y="134.057" width="49.0356" height="52.5946" fill="#F8F8F8"/>
<rect x="49.0355" y="186.651" width="49.0356" height="52.99" fill="#10967B"/>
<rect x="49.0355" y="239.642" width="49.0356" height="52.5946" fill="#F8F8F8"/>
<rect x="31.6359" y="107.166" width="31.2404" height="26.8905" fill="#F8F8F8"/>
<rect x="62.8762" y="107.166" width="31.6358" height="26.8905" fill="#FBACD9"/>
<rect x="94.5121" y="107.166" width="31.2404" height="26.8905" fill="#F8F8F8"/>
<rect x="202.074" width="75.5306" height="134.057" fill="#10967B"/>
<path d="M125.555 134.057C135.603 134.057 145.554 132.323 154.837 128.955C164.121 125.586 172.557 120.649 179.662 114.425C186.767 108.201 192.404 100.811 196.249 92.6791C200.095 84.5469 202.074 75.8307 202.074 67.0284C202.074 58.2261 200.095 49.51 196.249 41.3778C192.404 33.2455 186.767 25.8563 179.662 19.6322C172.557 13.408 164.121 8.47073 154.837 5.10223C145.554 1.73374 135.603 -7.69521e-07 125.555 0L125.555 67.0285V134.057Z" fill="#10967B"/>
<path d="M98.0711 186.651C91.6316 186.651 85.2553 188.022 79.306 190.685C73.3567 193.348 67.9511 197.251 63.3977 202.172C58.8443 207.092 55.2324 212.934 52.7681 219.363C50.3039 225.792 49.0355 232.683 49.0355 239.642L98.0711 239.642L98.0711 186.651Z" fill="#F8F8F8"/>
<circle cx="73.5534" cy="160.552" r="23.3314" fill="#FBACD9"/>
<circle cx="150.666" cy="213.146" r="23.3314" fill="#F8F8F8"/>
<rect x="9.49072" y="251.109" width="29.6586" height="29.6586" fill="#FBACD9"/>
<path d="M0 134.057L48.8378 186.651H0V134.057Z" fill="#F8F8F8"/>
<path d="M98.0712 134.65L202.865 292.236H98.0712V134.65Z" fill="#10967B"/>
<ellipse cx="61.2944" cy="252.691" rx="12.2589" ry="13.0498" fill="#10967B"/>
<ellipse cx="85.8122" cy="252.691" rx="12.2589" ry="13.0498" fill="#10967B"/>
<ellipse cx="85.8122" cy="278.989" rx="12.2589" ry="13.2475" fill="#10967B"/>
<ellipse cx="61.2944" cy="278.989" rx="12.2589" ry="13.2475" fill="#10967B"/>
<path d="M279 0C268.888 0 258.875 1.73301 249.533 5.10007C240.191 8.46714 231.703 13.4023 224.553 19.6238C217.403 25.8454 211.731 33.2314 207.861 41.3602C203.992 49.489 202 58.2014 202 67C202 75.7986 203.992 84.511 207.861 92.6398C211.731 100.769 217.403 108.155 224.553 114.376C231.703 120.598 240.191 125.533 249.533 128.9C258.875 132.267 268.888 134 279 134L279 67V0Z" fill="#FBACD9"/>
<path d="M202.074 43.1039L205.891 63.4759L227.778 67.0285L205.891 70.5811L202.074 90.9531L198.257 70.5811L176.37 67.0285L198.257 63.4759L202.074 43.1039Z" fill="#F8F8F8"/>
<path d="M23.3437 187.611C23.5406 186.257 25.4949 186.257 25.6917 187.611L28.59 207.553C28.663 208.055 29.0474 208.456 29.5463 208.549L47.9292 211.98C49.2207 212.221 49.2207 214.072 47.9292 214.313L29.5463 217.744C29.0474 217.838 28.663 218.238 28.59 218.74L25.6917 238.682C25.4949 240.036 23.5406 240.036 23.3437 238.682L20.4454 218.74C20.3724 218.238 19.988 217.838 19.4891 217.744L1.10625 214.313C-0.185267 214.072 -0.185273 212.221 1.10625 211.98L19.4891 208.549C19.988 208.456 20.3724 208.055 20.4454 207.553L23.3437 187.611Z" fill="white"/>
<rect x="278" y="170" width="31" height="31" fill="#10967B"/>
<rect x="339" y="170" width="31" height="31" fill="#10967B"/>
<rect x="309" y="201" width="30" height="31" fill="#10967B"/>
<rect x="370" y="201" width="31" height="31" fill="#10967B"/>
<rect x="278" y="232" width="31" height="30" fill="#10967B"/>
<rect x="339" y="232" width="31" height="30" fill="#10967B"/>
<rect x="309" y="262" width="30" height="31" fill="#10967B"/>
<rect x="370" y="262" width="31" height="31" fill="#10967B"/>
<rect x="401" y="170" width="31" height="31" fill="#10967B"/>
<rect x="462" y="170" width="31" height="31" fill="#10967B"/>
<rect x="432" y="201" width="30" height="31" fill="#10967B"/>
<rect x="493" y="201" width="31" height="31" fill="#10967B"/>
<rect x="401" y="232" width="31" height="30" fill="#10967B"/>
<rect x="462" y="232" width="31" height="30" fill="#10967B"/>
<rect x="432" y="262" width="30" height="31" fill="#10967B"/>
<rect x="493" y="262" width="31" height="31" fill="#10967B"/>
<rect x="524" y="170" width="31" height="31" fill="#10967B"/>
<rect x="555" y="201" width="31" height="31" fill="#10967B"/>
<rect x="524" y="232" width="31" height="30" fill="#10967B"/>
<rect x="555" y="262" width="31" height="31" fill="#10967B"/>
<rect x="309" width="8" height="170" fill="#10967B"/>
<rect x="327" width="16" height="170" fill="#10967B"/>
<rect x="278" width="26" height="173" fill="#10967B"/>
<rect x="519" width="9" height="170" fill="#10967B"/>
<rect x="569" width="9" height="170" fill="#10967B"/>
<rect x="347" width="4" height="170" fill="#10967B"/>
<rect x="538" width="4" height="170" fill="#10967B"/>
<rect x="545" y="-1" width="4" height="171" fill="#10967B"/>
<rect x="401" y="-1" width="4" height="171" fill="#10967B"/>
<rect x="366" width="15" height="170" fill="#10967B"/>
<rect x="384" width="5" height="170" fill="#10967B"/>
<rect x="408" width="24" height="170" fill="#10967B"/>
<rect x="490" width="24" height="170" fill="#10967B"/>
<rect x="585" width="99" height="292" fill="#FBACD9"/>
<rect x="438" width="12" height="170" fill="#10967B"/>
<rect x="472" width="12" height="170" fill="#10967B"/>
<rect x="453" width="4" height="170" fill="#10967B"/>
<rect x="581" width="4" height="170" fill="#10967B"/>
<rect x="557" width="3" height="170" fill="#10967B"/>
<circle cx="598.167" cy="12.1667" r="12.1667" fill="#F8F8F8"/>
<circle cx="622.5" cy="12.1667" r="12.1667" fill="#F8F8F8"/>
<circle cx="646.833" cy="12.1667" r="12.1667" fill="#F8F8F8"/>
<circle cx="671.167" cy="12.1667" r="12.1667" fill="#F8F8F8"/>
<circle cx="598.167" cy="36.5" r="12.1667" fill="#F8F8F8"/>
<circle cx="622.5" cy="36.5" r="12.1667" fill="#F8F8F8"/>
<circle cx="646.833" cy="36.5" r="12.1667" fill="#F8F8F8"/>
<circle cx="671.167" cy="36.5" r="12.1667" fill="#F8F8F8"/>
<circle cx="598.167" cy="60.8333" r="12.1667" fill="#F8F8F8"/>
<circle cx="622.5" cy="60.8333" r="12.1667" fill="#F8F8F8"/>
<circle cx="646.833" cy="60.8333" r="12.1667" fill="#F8F8F8"/>
<circle cx="671.167" cy="60.8333" r="12.1667" fill="#F8F8F8"/>
<circle cx="598.167" cy="85.1667" r="12.1667" fill="#F8F8F8"/>
<circle cx="622.5" cy="85.1667" r="12.1667" fill="#F8F8F8"/>
<circle cx="646.833" cy="85.1667" r="12.1667" fill="#F8F8F8"/>
<circle cx="671.167" cy="85.1667" r="12.1667" fill="#F8F8F8"/>
<circle cx="598.167" cy="109.5" r="12.1667" fill="#F8F8F8"/>
<circle cx="622.5" cy="109.5" r="12.1667" fill="#F8F8F8"/>
<circle cx="646.833" cy="109.5" r="12.1667" fill="#F8F8F8"/>
<circle cx="671.167" cy="109.5" r="12.1667" fill="#F8F8F8"/>
<circle cx="598.167" cy="133.833" r="12.1667" fill="#F8F8F8"/>
<circle cx="622.5" cy="133.833" r="12.1667" fill="#F8F8F8"/>
<circle cx="646.833" cy="133.833" r="12.1667" fill="#F8F8F8"/>
<circle cx="671.167" cy="133.833" r="12.1667" fill="#F8F8F8"/>
<circle cx="598.167" cy="158.167" r="12.1667" fill="#F8F8F8"/>
<circle cx="622.5" cy="158.167" r="12.1667" fill="#F8F8F8"/>
<circle cx="646.833" cy="158.167" r="12.1667" fill="#F8F8F8"/>
<circle cx="671.167" cy="158.167" r="12.1667" fill="#F8F8F8"/>
<circle cx="598.167" cy="182.5" r="12.1667" fill="#F8F8F8"/>
<circle cx="622.5" cy="182.5" r="12.1667" fill="#F8F8F8"/>
<circle cx="646.833" cy="182.5" r="12.1667" fill="#F8F8F8"/>
<circle cx="671.167" cy="182.5" r="12.1667" fill="#F8F8F8"/>
<circle cx="598.167" cy="206.833" r="12.1667" fill="#F8F8F8"/>
<circle cx="622.5" cy="206.833" r="12.1667" fill="#F8F8F8"/>
<circle cx="646.833" cy="206.833" r="12.1667" fill="#F8F8F8"/>
<circle cx="671.167" cy="206.833" r="12.1667" fill="#F8F8F8"/>
<circle cx="598.167" cy="231.167" r="12.1667" fill="#F8F8F8"/>
<circle cx="622.5" cy="231.167" r="12.1667" fill="#F8F8F8"/>
<circle cx="646.833" cy="231.167" r="12.1667" fill="#F8F8F8"/>
<circle cx="671.167" cy="231.167" r="12.1667" fill="#F8F8F8"/>
<circle cx="598.167" cy="255.5" r="12.1667" fill="#F8F8F8"/>
<circle cx="622.5" cy="255.5" r="12.1667" fill="#F8F8F8"/>
<circle cx="646.833" cy="255.5" r="12.1667" fill="#F8F8F8"/>
<circle cx="671.167" cy="255.5" r="12.1667" fill="#F8F8F8"/>
<circle cx="598.167" cy="279.833" r="12.1667" fill="#F8F8F8"/>
<circle cx="622.5" cy="279.833" r="12.1667" fill="#F8F8F8"/>
<circle cx="646.833" cy="279.833" r="12.1667" fill="#F8F8F8"/>
<circle cx="671.167" cy="279.833" r="12.1667" fill="#F8F8F8"/>
<rect x="684" y="113" width="194" height="179" fill="#10967B"/>
<path d="M684 113H878V292L684 113Z" fill="#F8F8F8"/>
<rect x="684" width="316" height="113" fill="#10967B"/>
<rect x="694" y="10" width="43" height="94" fill="#F8F8F8"/>
<rect x="878" y="113" width="122" height="179" fill="#FBACD9"/>
<rect x="744" y="10" width="43" height="94" fill="#F8F8F8"/>
<rect x="795" y="10" width="43" height="94" fill="#F8F8F8"/>
<rect x="845" y="10" width="43" height="94" fill="#F8F8F8"/>
<rect x="896" y="10" width="43" height="94" fill="#F8F8F8"/>
<rect x="946" y="10" width="43" height="94" fill="#F8F8F8"/>
<path d="M739.704 33L743.66 46.8078L756.226 38.5973L749.721 51.5416L765.018 52.7701L751.095 58.7941L761.965 68.8869L747.139 65.1719L748.495 79.4064L739.704 67.6907L730.913 79.4064L732.269 65.1719L717.444 68.8869L728.313 58.7941L714.391 52.7701L729.687 51.5416L723.182 38.5973L735.748 46.8078L739.704 33Z" fill="#FBACD9"/>
<path d="M841.704 33L845.66 46.8078L858.226 38.5973L851.721 51.5416L867.018 52.7701L853.095 58.7941L863.965 68.8869L849.139 65.1719L850.495 79.4064L841.704 67.6907L832.913 79.4064L834.269 65.1719L819.444 68.8869L830.313 58.7941L816.391 52.7701L831.687 51.5416L825.182 38.5973L837.748 46.8078L841.704 33Z" fill="#FBACD9"/>
<path d="M942.704 33L946.66 46.8078L959.226 38.5973L952.721 51.5416L968.018 52.7701L954.095 58.7941L964.965 68.8869L950.139 65.1719L951.495 79.4064L942.704 67.6907L933.913 79.4064L935.269 65.1719L920.444 68.8869L931.313 58.7941L917.391 52.7701L932.687 51.5416L926.182 38.5973L938.748 46.8078L942.704 33Z" fill="#FBACD9"/>
<rect x="885" y="120" width="108" height="166" fill="#F8F8F8"/>
<rect x="899" y="145" width="80" height="116" fill="#10967B"/>
<rect x="909" y="156" width="59" height="94" fill="#F8F8F8"/>
<rect x="918" y="167" width="42" height="72" fill="#FBACD9"/>
<circle cx="939" cy="203" r="8" fill="#10967B"/>
<circle cx="781" cy="202" r="35" fill="#FBACD9"/>
</g>
<defs>
<clipPath id="clip0_173_5">
<rect width="1000" height="292" fill="white"/>
</clipPath>
</defs>
</svg>
