<svg width="278" height="293" viewBox="0 0 278 293" fill="none" xmlns="http://www.w3.org/2000/svg">
<g clip-path="url(#clip0_150_149)">
<rect width="278" height="292.236" fill="#EEEEEE"/>
<rect width="277.605" height="292.236" fill="#D6FD68"/>
<rect y="134.057" width="277.605" height="158.179" fill="#D6FD68"/>
<rect width="31.6358" height="26.8905" fill="#D6FD68"/>
<rect x="31.6359" width="31.2404" height="26.8905" fill="#EEEEEE"/>
<rect x="62.8762" width="31.6358" height="26.8905" fill="#D6FD68"/>
<rect x="94.5121" width="31.2404" height="26.8905" fill="#EEEEEE"/>
<rect y="26.8905" width="31.6358" height="26.8905" fill="#EEEEEE"/>
<rect x="31.6359" y="26.8905" width="31.2404" height="26.8905" fill="#D6FD68"/>
<rect x="62.8762" y="26.8905" width="31.6358" height="26.8905" fill="#EEEEEE"/>
<rect x="94.5121" y="26.8905" width="31.2404" height="26.8905" fill="#D6FD68"/>
<rect y="53.7809" width="31.6358" height="26.495" fill="#D6FD68"/>
<rect x="31.6359" y="53.7809" width="31.2404" height="26.495" fill="#EEEEEE"/>
<rect x="62.8762" y="53.7809" width="31.6358" height="26.495" fill="#D6FD68"/>
<rect x="94.5121" y="53.7809" width="31.2404" height="26.495" fill="#EEEEEE"/>
<rect y="80.276" width="31.6358" height="26.8905" fill="#EEEEEE"/>
<rect x="31.6359" y="80.276" width="31.2404" height="26.8905" fill="#D6FD68"/>
<rect x="62.8762" y="80.276" width="31.6358" height="26.8905" fill="#EEEEEE"/>
<rect x="94.5121" y="80.276" width="31.2404" height="26.8905" fill="#D6FD68"/>
<rect x="271.673" y="134.057" width="6.32717" height="158.179" fill="#EEEEEE"/>
<rect x="265.346" y="134.057" width="6.32717" height="158.179" fill="#9DB7F5"/>
<rect x="259.019" y="134.057" width="6.32717" height="158.179" fill="#EEEEEE"/>
<rect x="252.691" y="134.057" width="6.32717" height="158.179" fill="#9DB7F5"/>
<rect x="246.364" y="134.057" width="6.32717" height="158.179" fill="#EEEEEE"/>
<rect x="240.037" y="134.057" width="6.32717" height="158.179" fill="#9DB7F5"/>
<rect x="233.71" y="134.057" width="6.32717" height="158.179" fill="#EEEEEE"/>
<rect x="227.383" y="134.057" width="6.32717" height="158.179" fill="#9DB7F5"/>
<rect x="221.055" y="134.057" width="6.32717" height="158.179" fill="#EEEEEE"/>
<rect x="214.728" y="134.057" width="6.32717" height="158.179" fill="#9DB7F5"/>
<rect x="208.401" y="134.057" width="6.32717" height="158.179" fill="#EEEEEE"/>
<rect x="202.074" y="134.057" width="6.32717" height="158.179" fill="#9DB7F5"/>
<rect y="107.166" width="31.6358" height="26.8905" fill="#D6FD68"/>
<rect y="134.057" width="49.0356" height="52.5946" fill="#9DB7F5"/>
<rect y="186.651" width="49.0356" height="52.99" fill="#D6FD68"/>
<rect y="239.642" width="49.0356" height="52.5946" fill="#9DB7F5"/>
<rect x="49.0355" y="134.057" width="49.0356" height="52.5946" fill="#EEEEEE"/>
<rect x="49.0355" y="186.651" width="49.0356" height="52.99" fill="#9DB7F5"/>
<rect x="49.0355" y="239.642" width="49.0356" height="52.5946" fill="#EEEEEE"/>
<rect x="31.6359" y="107.166" width="31.2404" height="26.8905" fill="#EEEEEE"/>
<rect x="62.8762" y="107.166" width="31.6358" height="26.8905" fill="#D6FD68"/>
<rect x="94.5121" y="107.166" width="31.2404" height="26.8905" fill="#EEEEEE"/>
<rect x="202.074" width="75.5306" height="134.057" fill="#9DB7F5"/>
<path d="M125.555 134.057C135.603 134.057 145.554 132.323 154.837 128.955C164.121 125.586 172.557 120.649 179.662 114.425C186.767 108.201 192.404 100.811 196.249 92.6791C200.095 84.5469 202.074 75.8307 202.074 67.0285C202.074 58.2261 200.095 49.51 196.249 41.3778C192.404 33.2455 186.767 25.8563 179.662 19.6322C172.557 13.408 164.121 8.47073 154.837 5.10223C145.554 1.73374 135.603 -7.69521e-07 125.555 0L125.555 67.0285V134.057Z" fill="#9DB7F5"/>
<path d="M98.0711 186.651C91.6316 186.651 85.2553 188.022 79.306 190.685C73.3567 193.348 67.9511 197.251 63.3977 202.172C58.8443 207.092 55.2324 212.934 52.7681 219.363C50.3039 225.792 49.0355 232.683 49.0355 239.641L98.0711 239.641V186.651Z" fill="#EEEEEE"/>
<circle cx="73.5534" cy="160.552" r="23.3314" fill="#D6FD68"/>
<circle cx="150.666" cy="213.147" r="23.3314" fill="#EEEEEE"/>
<rect x="9.49072" y="251.11" width="29.6586" height="29.6586" fill="#D6FD68"/>
<path d="M0 134.057L48.8378 186.651H0V134.057Z" fill="#EEEEEE"/>
<path d="M98.0712 134.65L202.865 292.236H98.0712V134.65Z" fill="#9DB7F5"/>
<ellipse cx="61.2944" cy="252.691" rx="12.2589" ry="13.0498" fill="#9DB7F5"/>
<ellipse cx="85.8122" cy="252.691" rx="12.2589" ry="13.0498" fill="#9DB7F5"/>
<ellipse cx="85.8122" cy="278.989" rx="12.2589" ry="13.2475" fill="#9DB7F5"/>
<ellipse cx="61.2944" cy="278.989" rx="12.2589" ry="13.2475" fill="#9DB7F5"/>
<path d="M277.604 -1.52588e-05C267.634 -1.52588e-05 257.761 1.73373 248.549 5.10222C239.337 8.47072 230.967 13.408 223.917 19.6322C216.866 25.8563 211.274 33.2455 207.458 41.3778C203.642 49.51 201.678 58.2261 201.678 67.0284C201.678 75.8307 203.642 84.5468 207.458 92.6791C211.274 100.811 216.866 108.201 223.917 114.425C230.967 120.649 239.337 125.586 248.549 128.955C257.761 132.323 267.634 134.057 277.605 134.057L277.604 67.0284V-1.52588e-05Z" fill="#D6FD68"/>
<path d="M202.074 43.1039L205.891 63.4759L227.778 67.0285L205.891 70.5811L202.074 90.9531L198.257 70.5811L176.37 67.0285L198.257 63.4759L202.074 43.1039Z" fill="#EEEEEE"/>
<path d="M23.3437 187.611C23.5406 186.257 25.4949 186.257 25.6917 187.611L28.59 207.553C28.663 208.055 29.0474 208.456 29.5463 208.549L47.9292 211.98C49.2207 212.221 49.2207 214.072 47.9292 214.313L29.5463 217.744C29.0474 217.838 28.663 218.238 28.59 218.74L25.6917 238.682C25.4949 240.036 23.5406 240.036 23.3437 238.682L20.4454 218.74C20.3724 218.238 19.988 217.838 19.4891 217.744L1.10625 214.313C-0.185267 214.072 -0.185273 212.221 1.10625 211.98L19.4891 208.549C19.988 208.456 20.3724 208.055 20.4454 207.553L23.3437 187.611Z" fill="#EEEEEE"/>
</g>
<defs>
<clipPath id="clip0_150_149">
<rect width="278" height="292.236" fill="white"/>
</clipPath>
</defs>
</svg>
