<svg width="245" height="245" viewBox="0 0 245 245" fill="none" xmlns="http://www.w3.org/2000/svg">
<g clip-path="url(#clip0_150_150)">
<rect width="245" height="245" fill="#F8F8F8"/>
<rect y="123" width="123" height="122" fill="#D6FD68"/>
<rect width="123" height="123" fill="#F8F8F8"/>
<rect x="123" width="122" height="123" fill="#9DB7F5"/>
<rect x="123" y="123" width="122" height="122" fill="#F8F8F8"/>
<rect x="15" y="139" width="93" height="90" fill="#F8F8F8"/>
<rect x="28" y="151" width="68" height="66" fill="#9DB7F5"/>
<ellipse cx="184" cy="61.5" rx="61" ry="61.5" fill="#D6FD68"/>
<rect x="123" y="123" width="10" height="122" fill="#9DB7F5"/>
<rect x="143" y="123" width="11" height="122" fill="#D6FD68"/>
<rect x="164" y="123" width="10" height="122" fill="#9DB7F5"/>
<rect x="184" y="123" width="10" height="122" fill="#D6FD68"/>
<rect x="204" y="123" width="11" height="122" fill="#9DB7F5"/>
<rect x="225" y="123" width="10" height="122" fill="#D6FD68"/>
<rect width="31" height="31" fill="#9DB7F5"/>
<rect x="61" width="31" height="31" fill="#9DB7F5"/>
<rect x="31" y="31" width="30" height="31" fill="#9DB7F5"/>
<rect x="92" y="31" width="31" height="31" fill="#9DB7F5"/>
<rect y="62" width="31" height="30" fill="#9DB7F5"/>
<rect x="61" y="62" width="31" height="30" fill="#9DB7F5"/>
<rect x="31" y="92" width="30" height="31" fill="#9DB7F5"/>
<rect x="92" y="92" width="31" height="31" fill="#9DB7F5"/>
</g>
<defs>
<clipPath id="clip0_150_150">
<rect width="245" height="245" fill="white"/>
</clipPath>
</defs>
</svg>
